<svg width="33" height="32" viewBox="0 0 33 32" fill="none" xmlns="http://www.w3.org/2000/svg">
<mask id="path-1-inside-1" fill="white">
<path d="M2.36612 23.3931C3.17291 24.7862 0.559326 30.1932 0.559326 30.1932C3.35933 31.5478 7.46392 30.7576 9.16622 30.1932C11.0593 31.5 14.7202 31.9725 16.5593 32C25.3959 32 32.5593 24.8366 32.5593 16C32.5593 7.16344 25.3959 0 16.5593 0C7.72277 0 0.559326 7.16344 0.559326 16C0.660406 18.023 1.55933 22 2.36612 23.3931Z"/>
</mask>
<path d="M0.559326 30.1932L-0.311653 31.9936L-2.11145 31.1229L-1.24134 29.3228L0.559326 30.1932ZM16.5593 32V34H16.5444L16.5294 33.9998L16.5593 32ZM0.559326 16L-1.43818 16.0998L-1.44067 16.0499V16H0.559326ZM9.16622 30.1932L8.53681 28.2948L9.48248 27.9813L10.3024 28.5473L9.16622 30.1932ZM0.559326 30.1932C-1.24134 29.3228 -1.24143 29.323 -1.2415 29.3231C-1.24152 29.3232 -1.24158 29.3233 -1.2416 29.3234C-1.24165 29.3234 -1.24166 29.3235 -1.24163 29.3234C-1.24157 29.3233 -1.24135 29.3228 -1.24098 29.3221C-1.24025 29.3205 -1.2389 29.3177 -1.23697 29.3137C-1.2331 29.3056 -1.22691 29.2926 -1.21855 29.275C-1.20183 29.2398 -1.17651 29.186 -1.14405 29.1161C-1.07905 28.9761 -0.985794 28.7719 -0.87579 28.5217C-0.654476 28.0183 -0.371513 27.3423 -0.115234 26.6346C0.145924 25.9134 0.35574 25.2233 0.458324 24.6753C0.509735 24.4007 0.522491 24.2217 0.520538 24.1261C0.51799 24.0014 0.494534 24.1522 0.635406 24.3954L4.09683 22.3908C4.4394 22.9823 4.51076 23.6068 4.5197 24.0444C4.52925 24.5112 4.47018 24.9832 4.39002 25.4113C4.22947 26.269 3.93716 27.1918 3.64577 27.9965C3.34951 28.8147 3.0295 29.5776 2.78598 30.1315C2.66356 30.4099 2.55894 30.6391 2.48415 30.8002C2.44673 30.8808 2.41668 30.9446 2.39551 30.9893C2.38492 31.0116 2.37654 31.0291 2.37057 31.0416C2.36758 31.0479 2.36519 31.0528 2.36342 31.0565C2.36253 31.0583 2.3618 31.0599 2.36123 31.061C2.36095 31.0616 2.3607 31.0621 2.36049 31.0626C2.36039 31.0628 2.36027 31.063 2.36022 31.0631C2.3601 31.0634 2.36 31.0636 0.559326 30.1932ZM16.5593 30C24.2913 30 30.5593 23.732 30.5593 16H34.5593C34.5593 25.9411 26.5005 34 16.5593 34V30ZM30.5593 16C30.5593 8.26801 24.2913 2 16.5593 2V-2C26.5005 -2 34.5593 6.05887 34.5593 16H30.5593ZM16.5593 2C8.82734 2 2.55933 8.26801 2.55933 16H-1.44067C-1.44067 6.05887 6.6182 -2 16.5593 -2V2ZM2.55684 15.9002C2.59884 16.7408 2.81987 18.1087 3.14375 19.4698C3.48089 20.8865 3.85436 21.9721 4.09683 22.3908L0.635406 24.3954C0.0710907 23.421 -0.408302 21.8215 -0.747589 20.3958C-1.10014 18.9142 -1.3791 17.2822 -1.43818 16.0998L2.55684 15.9002ZM16.5294 33.9998C15.4868 33.9842 13.9865 33.8459 12.4791 33.5351C11.018 33.2338 9.3116 32.7238 8.03005 31.8391L10.3024 28.5473C10.9139 28.9694 11.9846 29.349 13.2869 29.6175C14.5431 29.8766 15.7928 29.9883 16.5892 30.0002L16.5294 33.9998ZM9.79564 32.0916C8.79238 32.4242 7.17099 32.7988 5.39849 32.909C3.65521 33.0173 1.53216 32.8856 -0.311653 31.9936L1.43031 28.3928C2.38649 28.8554 3.71574 29.0058 5.15033 28.9167C6.55571 28.8293 7.83777 28.5266 8.53681 28.2948L9.79564 32.0916Z" fill="#F6F3EA" mask="url(#path-1-inside-1)"/>
</svg>
