<svg width="33" height="32" viewBox="0 0 33 32" fill="none" xmlns="http://www.w3.org/2000/svg">
<path fill-rule="evenodd" clip-rule="evenodd" d="M16.5593 32C25.3962 32 32.5593 24.8369 32.5593 16C32.5593 7.16308 25.3962 0 16.5593 0C7.7224 0 0.559326 7.16308 0.559326 16C0.559326 24.8369 7.7224 32 16.5593 32ZM15.6882 24.1226L10.0685 18.5029C9.58727 18.0217 9.58727 17.2438 10.0685 16.7626C10.5497 16.2813 11.3276 16.2813 11.8088 16.7626L15.335 20.2887V8.60996C15.335 7.92935 15.8863 7.3792 16.5657 7.3792C17.2463 7.3792 17.7965 7.92935 17.7965 8.60996V20.274L21.3091 16.7626C21.5491 16.5226 21.8642 16.402 22.1793 16.402C22.4943 16.402 22.8094 16.5226 23.0494 16.7626C23.5307 17.2426 23.5307 18.0217 23.0494 18.5029L17.4285 24.1226C17.1983 24.354 16.8857 24.4832 16.5583 24.4832C16.2322 24.4832 15.9196 24.354 15.6882 24.1226Z" fill="#F6F3EA"/>
</svg>
