<svg xmlns="http://www.w3.org/2000/svg" xmlns:xlink="http://www.w3.org/1999/xlink" version="1.1" x="0px" y="0px" viewBox="0 0 100 125" enable-background="new 0 0 100 100" xml:space="preserve"><g><path fill="#000000" d="M71,35.1c0-11.5-9.3-20.8-20.8-20.8c-11.5,0-20.8,9.3-20.8,20.8v9.9c-3.2,4.3-5.2,9.7-5.2,15.5   c0,14.3,11.6,25.9,25.9,25.9c14.3,0,25.9-11.6,25.9-25.9c0-5.8-1.9-11.2-5.2-15.5V35.1z M50.2,18.4c9.2,0,16.7,7.5,16.7,16.7v5.5   c-4.5-3.8-10.3-6.1-16.7-6.1c-6.3,0-12.1,2.3-16.7,6.1v-5.5C33.5,25.9,41,18.4,50.2,18.4z M50.2,82.3c-12,0-21.8-9.8-21.8-21.8   c0-12,9.8-21.8,21.8-21.8c12,0,21.8,9.8,21.8,21.8C72,72.5,62.2,82.3,50.2,82.3z"/><path fill="#000000" d="M50.3,51c-3.2,0-5.7,2.6-5.7,5.7c0,2.2,1.2,4,3,5v10.6h5.3V61.8c1.9-0.9,3.2-2.9,3.2-5.1   C56,53.5,53.5,51,50.3,51z"/></g><text x="0" y="115" fill="#000000" font-size="5px" font-weight="bold" font-family="'Helvetica Neue', Helvetica, Arial-Unicode, Arial, Sans-serif">Created by NAS</text><text x="0" y="120" fill="#000000" font-size="5px" font-weight="bold" font-family="'Helvetica Neue', Helvetica, Arial-Unicode, Arial, Sans-serif">from the Noun Project</text></svg>