<svg width="32" height="32" viewBox="0 0 32 32" fill="none" xmlns="http://www.w3.org/2000/svg">
<path fill-rule="evenodd" clip-rule="evenodd" d="M16 0C7.16308 0 0 7.16308 0 16C0 24.8369 7.16308 32 16 32C24.8369 32 32 24.8369 32 16C32 7.16308 24.8369 0 16 0ZM16.8711 7.87742L22.4908 13.4971C22.9721 13.9783 22.9721 14.7562 22.4908 15.2374C22.0096 15.7187 21.2318 15.7187 20.7505 15.2374L17.2244 11.7113V23.39C17.2244 24.0707 16.673 24.6208 15.9936 24.6208C15.313 24.6208 14.7628 24.0707 14.7628 23.39V11.726L11.2502 15.2374C11.0102 15.4774 10.6951 15.598 10.3801 15.598C10.065 15.598 9.7499 15.4774 9.5099 15.2374C9.02867 14.7574 9.02867 13.9783 9.5099 13.4971L15.1308 7.87742C15.361 7.64604 15.6736 7.51681 16.001 7.51681C16.3271 7.51681 16.6397 7.64604 16.8711 7.87742Z" fill="#F6F3EA"/>
</svg>
