<svg width="54" height="54" viewBox="0 0 54 54" fill="none" xmlns="http://www.w3.org/2000/svg">
<rect width="54" height="54" rx="12" fill="#639C81"/>
<path d="M27.02 18L17.87 39H14.03L4.85 18H9.08L16.07 34.2L23.12 18H27.02ZM40.262 26.67C42.202 26.91 43.682 27.57 44.702 28.65C45.722 29.73 46.232 31.08 46.232 32.7C46.232 33.92 45.922 35.03 45.302 36.03C44.682 37.03 43.742 37.83 42.482 38.43C41.242 39.01 39.722 39.3 37.922 39.3C36.422 39.3 34.972 39.09 33.572 38.67C32.192 38.23 31.012 37.63 30.032 36.87L31.712 33.84C32.472 34.48 33.392 34.99 34.472 35.37C35.572 35.73 36.702 35.91 37.862 35.91C39.242 35.91 40.322 35.63 41.102 35.07C41.902 34.49 42.302 33.71 42.302 32.73C42.302 31.75 41.922 30.99 41.162 30.45C40.422 29.89 39.282 29.61 37.742 29.61H35.822V26.94L40.592 21.27H31.052V18H45.362V20.61L40.262 26.67Z" fill="#E7E6E4"/>
</svg>
