<svg width="371" height="173" viewBox="0 0 371 173" fill="none" xmlns="http://www.w3.org/2000/svg">
<rect width="371" height="173" fill="white"/>
<path d="M133.072 111.488V101.696H169.04V146.496H133.904V136.704H156.496V129.152H136.592V119.68H156.496V111.488H133.072Z" fill="#E7E6E4"/>
<path d="M64.968 136.904V146.696H29V101.896H64.136V111.688H41.544V119.24H61.448V128.712H41.544V136.904H64.968Z" fill="#E7E6E4"/>
<path d="M81.344 147.592C77.7173 147.592 74.1973 147.144 70.784 146.248C67.3707 145.352 64.5973 144.157 62.464 142.664L66.624 133.32C68.6293 134.643 70.9547 135.709 73.6 136.52C76.2453 137.331 78.848 137.736 81.408 137.736C86.272 137.736 88.704 136.52 88.704 134.088C88.704 132.808 88 131.869 86.592 131.272C85.2267 130.632 83.008 129.971 79.936 129.288C76.5653 128.563 73.7493 127.795 71.488 126.984C69.2267 126.131 67.2853 124.787 65.664 122.952C64.0427 121.117 63.232 118.643 63.232 115.528C63.232 112.797 63.9787 110.344 65.472 108.168C66.9653 105.949 69.184 104.2 72.128 102.92C75.1147 101.64 78.7627 101 83.072 101C86.016 101 88.9173 101.341 91.776 102.024C94.6347 102.664 97.152 103.624 99.328 104.904L95.424 114.312C91.1573 112.008 87.0187 110.856 83.008 110.856C80.4907 110.856 78.656 111.24 77.504 112.008C76.352 112.733 75.776 113.693 75.776 114.888C75.776 116.083 76.4587 116.979 77.824 117.576C79.1893 118.173 81.3867 118.792 84.416 119.432C87.8293 120.157 90.6453 120.947 92.864 121.8C95.1253 122.611 97.0667 123.933 98.688 125.768C100.352 127.56 101.184 130.013 101.184 133.128C101.184 135.816 100.437 138.248 98.944 140.424C97.4507 142.6 95.2107 144.349 92.224 145.672C89.2373 146.952 85.6107 147.592 81.344 147.592ZM116.381 147.592C112.755 147.592 109.235 147.144 105.821 146.248C102.408 145.352 99.6348 144.157 97.5015 142.664L101.661 133.32C103.667 134.643 105.992 135.709 108.637 136.52C111.283 137.331 113.885 137.736 116.445 137.736C121.309 137.736 123.741 136.52 123.741 134.088C123.741 132.808 123.037 131.869 121.629 131.272C120.264 130.632 118.045 129.971 114.973 129.288C111.603 128.563 108.787 127.795 106.525 126.984C104.264 126.131 102.323 124.787 100.701 122.952C99.0802 121.117 98.2695 118.643 98.2695 115.528C98.2695 112.797 99.0162 110.344 100.509 108.168C102.003 105.949 104.221 104.2 107.165 102.92C110.152 101.64 113.8 101 118.109 101C121.053 101 123.955 101.341 126.813 102.024C129.672 102.664 132.189 103.624 134.365 104.904L130.461 114.312C126.195 112.008 122.056 110.856 118.045 110.856C115.528 110.856 113.693 111.24 112.541 112.008C111.389 112.733 110.813 113.693 110.813 114.888C110.813 116.083 111.496 116.979 112.861 117.576C114.227 118.173 116.424 118.792 119.453 119.432C122.867 120.157 125.683 120.947 127.901 121.8C130.163 122.611 132.104 123.933 133.725 125.768C135.389 127.56 136.221 130.013 136.221 133.128C136.221 135.816 135.475 138.248 133.981 140.424C132.488 142.6 130.248 144.349 127.261 145.672C124.275 146.952 120.648 147.592 116.381 147.592Z" fill="#E7E6E4"/>
<path d="M304.072 35.488V25.696H340.04V70.496H304.904V60.704H327.496V53.152H307.592V43.68H327.496V35.488H304.072Z" fill="#E7E6E4"/>
<path d="M235.968 60.904V70.696H200V25.896H235.136V35.688H212.544V43.24H232.448V52.712H212.544V60.904H235.968Z" fill="#E7E6E4"/>
<path d="M252.344 71.592C248.717 71.592 245.197 71.144 241.784 70.248C238.371 69.352 235.597 68.1573 233.464 66.664L237.624 57.32C239.629 58.6427 241.955 59.7093 244.6 60.52C247.245 61.3307 249.848 61.736 252.408 61.736C257.272 61.736 259.704 60.52 259.704 58.088C259.704 56.808 259 55.8693 257.592 55.272C256.227 54.632 254.008 53.9707 250.936 53.288C247.565 52.5627 244.749 51.7947 242.488 50.984C240.227 50.1307 238.285 48.7867 236.664 46.952C235.043 45.1173 234.232 42.6427 234.232 39.528C234.232 36.7973 234.979 34.344 236.472 32.168C237.965 29.9493 240.184 28.2 243.128 26.92C246.115 25.64 249.763 25 254.072 25C257.016 25 259.917 25.3413 262.776 26.024C265.635 26.664 268.152 27.624 270.328 28.904L266.424 38.312C262.157 36.008 258.019 34.856 254.008 34.856C251.491 34.856 249.656 35.24 248.504 36.008C247.352 36.7333 246.776 37.6933 246.776 38.888C246.776 40.0827 247.459 40.9787 248.824 41.576C250.189 42.1733 252.387 42.792 255.416 43.432C258.829 44.1573 261.645 44.9467 263.864 45.8C266.125 46.6107 268.067 47.9333 269.688 49.768C271.352 51.56 272.184 54.0133 272.184 57.128C272.184 59.816 271.437 62.248 269.944 64.424C268.451 66.6 266.211 68.3493 263.224 69.672C260.237 70.952 256.611 71.592 252.344 71.592ZM287.381 71.592C283.755 71.592 280.235 71.144 276.821 70.248C273.408 69.352 270.635 68.1573 268.501 66.664L272.661 57.32C274.667 58.6427 276.992 59.7093 279.637 60.52C282.283 61.3307 284.885 61.736 287.445 61.736C292.309 61.736 294.741 60.52 294.741 58.088C294.741 56.808 294.037 55.8693 292.629 55.272C291.264 54.632 289.045 53.9707 285.973 53.288C282.603 52.5627 279.787 51.7947 277.525 50.984C275.264 50.1307 273.323 48.7867 271.701 46.952C270.08 45.1173 269.269 42.6427 269.269 39.528C269.269 36.7973 270.016 34.344 271.509 32.168C273.003 29.9493 275.221 28.2 278.165 26.92C281.152 25.64 284.8 25 289.109 25C292.053 25 294.955 25.3413 297.813 26.024C300.672 26.664 303.189 27.624 305.365 28.904L301.461 38.312C297.195 36.008 293.056 34.856 289.045 34.856C286.528 34.856 284.693 35.24 283.541 36.008C282.389 36.7333 281.813 37.6933 281.813 38.888C281.813 40.0827 282.496 40.9787 283.861 41.576C285.227 42.1733 287.424 42.792 290.453 43.432C293.867 44.1573 296.683 44.9467 298.901 45.8C301.163 46.6107 303.104 47.9333 304.725 49.768C306.389 51.56 307.221 54.0133 307.221 57.128C307.221 59.816 306.475 62.248 304.981 64.424C303.488 66.6 301.248 68.3493 298.261 69.672C295.275 70.952 291.648 71.592 287.381 71.592Z" fill="#11111D"/>
<path d="M304.072 110.488V100.696H340.04V145.496H304.904V135.704H327.496V128.152H307.592V118.68H327.496V110.488H304.072Z" fill="#11111D"/>
<path d="M235.968 135.904V145.696H200V100.896H235.136V110.688H212.544V118.24H232.448V127.712H212.544V135.904H235.968Z" fill="#11111D"/>
<path d="M252.344 146.592C248.717 146.592 245.197 146.144 241.784 145.248C238.371 144.352 235.597 143.157 233.464 141.664L237.624 132.32C239.629 133.643 241.955 134.709 244.6 135.52C247.245 136.331 249.848 136.736 252.408 136.736C257.272 136.736 259.704 135.52 259.704 133.088C259.704 131.808 259 130.869 257.592 130.272C256.227 129.632 254.008 128.971 250.936 128.288C247.565 127.563 244.749 126.795 242.488 125.984C240.227 125.131 238.285 123.787 236.664 121.952C235.043 120.117 234.232 117.643 234.232 114.528C234.232 111.797 234.979 109.344 236.472 107.168C237.965 104.949 240.184 103.2 243.128 101.92C246.115 100.64 249.763 100 254.072 100C257.016 100 259.917 100.341 262.776 101.024C265.635 101.664 268.152 102.624 270.328 103.904L266.424 113.312C262.157 111.008 258.019 109.856 254.008 109.856C251.491 109.856 249.656 110.24 248.504 111.008C247.352 111.733 246.776 112.693 246.776 113.888C246.776 115.083 247.459 115.979 248.824 116.576C250.189 117.173 252.387 117.792 255.416 118.432C258.829 119.157 261.645 119.947 263.864 120.8C266.125 121.611 268.067 122.933 269.688 124.768C271.352 126.56 272.184 129.013 272.184 132.128C272.184 134.816 271.437 137.248 269.944 139.424C268.451 141.6 266.211 143.349 263.224 144.672C260.237 145.952 256.611 146.592 252.344 146.592ZM287.381 146.592C283.755 146.592 280.235 146.144 276.821 145.248C273.408 144.352 270.635 143.157 268.501 141.664L272.661 132.32C274.667 133.643 276.992 134.709 279.637 135.52C282.283 136.331 284.885 136.736 287.445 136.736C292.309 136.736 294.741 135.52 294.741 133.088C294.741 131.808 294.037 130.869 292.629 130.272C291.264 129.632 289.045 128.971 285.973 128.288C282.603 127.563 279.787 126.795 277.525 125.984C275.264 125.131 273.323 123.787 271.701 121.952C270.08 120.117 269.269 117.643 269.269 114.528C269.269 111.797 270.016 109.344 271.509 107.168C273.003 104.949 275.221 103.2 278.165 101.92C281.152 100.64 284.8 100 289.109 100C292.053 100 294.955 100.341 297.813 101.024C300.672 101.664 303.189 102.624 305.365 103.904L301.461 113.312C297.195 111.008 293.056 109.856 289.045 109.856C286.528 109.856 284.693 110.24 283.541 111.008C282.389 111.733 281.813 112.693 281.813 113.888C281.813 115.083 282.496 115.979 283.861 116.576C285.227 117.173 287.424 117.792 290.453 118.432C293.867 119.157 296.683 119.947 298.901 120.8C301.163 121.611 303.104 122.933 304.725 124.768C306.389 126.56 307.221 129.013 307.221 132.128C307.221 134.816 306.475 137.248 304.981 139.424C303.488 141.6 301.248 143.349 298.261 144.672C295.275 145.952 291.648 146.592 287.381 146.592Z" fill="#11111D"/>
<path d="M133.072 35.488V25.696H169.04V70.496H133.904V60.704H156.496V53.152H136.592V43.68H156.496V35.488H133.072Z" fill="#11111D"/>
<path d="M64.968 60.904V70.696H29V25.896H64.136V35.688H41.544V43.24H61.448V52.712H41.544V60.904H64.968Z" fill="#11111D"/>
<path d="M81.344 71.592C77.7173 71.592 74.1973 71.144 70.784 70.248C67.3707 69.352 64.5973 68.1573 62.464 66.664L66.624 57.32C68.6293 58.6427 70.9547 59.7093 73.6 60.52C76.2453 61.3307 78.848 61.736 81.408 61.736C86.272 61.736 88.704 60.52 88.704 58.088C88.704 56.808 88 55.8693 86.592 55.272C85.2267 54.632 83.008 53.9707 79.936 53.288C76.5653 52.5627 73.7493 51.7947 71.488 50.984C69.2267 50.1307 67.2853 48.7867 65.664 46.952C64.0427 45.1173 63.232 42.6427 63.232 39.528C63.232 36.7973 63.9787 34.344 65.472 32.168C66.9653 29.9493 69.184 28.2 72.128 26.92C75.1147 25.64 78.7627 25 83.072 25C86.016 25 88.9173 25.3413 91.776 26.024C94.6347 26.664 97.152 27.624 99.328 28.904L95.424 38.312C91.1573 36.008 87.0187 34.856 83.008 34.856C80.4907 34.856 78.656 35.24 77.504 36.008C76.352 36.7333 75.776 37.6933 75.776 38.888C75.776 40.0827 76.4587 40.9787 77.824 41.576C79.1893 42.1733 81.3867 42.792 84.416 43.432C87.8293 44.1573 90.6453 44.9467 92.864 45.8C95.1253 46.6107 97.0667 47.9333 98.688 49.768C100.352 51.56 101.184 54.0133 101.184 57.128C101.184 59.816 100.437 62.248 98.944 64.424C97.4507 66.6 95.2107 68.3493 92.224 69.672C89.2373 70.952 85.6107 71.592 81.344 71.592ZM116.381 71.592C112.755 71.592 109.235 71.144 105.821 70.248C102.408 69.352 99.6348 68.1573 97.5015 66.664L101.661 57.32C103.667 58.6427 105.992 59.7093 108.637 60.52C111.283 61.3307 113.885 61.736 116.445 61.736C121.309 61.736 123.741 60.52 123.741 58.088C123.741 56.808 123.037 55.8693 121.629 55.272C120.264 54.632 118.045 53.9707 114.973 53.288C111.603 52.5627 108.787 51.7947 106.525 50.984C104.264 50.1307 102.323 48.7867 100.701 46.952C99.0802 45.1173 98.2695 42.6427 98.2695 39.528C98.2695 36.7973 99.0162 34.344 100.509 32.168C102.003 29.9493 104.221 28.2 107.165 26.92C110.152 25.64 113.8 25 118.109 25C121.053 25 123.955 25.3413 126.813 26.024C129.672 26.664 132.189 27.624 134.365 28.904L130.461 38.312C126.195 36.008 122.056 34.856 118.045 34.856C115.528 34.856 113.693 35.24 112.541 36.008C111.389 36.7333 110.813 37.6933 110.813 38.888C110.813 40.0827 111.496 40.9787 112.861 41.576C114.227 42.1733 116.424 42.792 119.453 43.432C122.867 44.1573 125.683 44.9467 127.901 45.8C130.163 46.6107 132.104 47.9333 133.725 49.768C135.389 51.56 136.221 54.0133 136.221 57.128C136.221 59.816 135.475 62.248 133.981 64.424C132.488 66.6 130.248 68.3493 127.261 69.672C124.275 70.952 120.648 71.592 116.381 71.592Z" fill="#E7E6E4"/>
</svg>
